#!OML:ASF X:\für Bonn\!DataBase\2005_08_11_Bastian_Final\c3d\Bastian.ASF
:FULLY-SPECIFIED
:DEGREES
77
root -1.59531 17.6306 -8.41598 168.664 -4.86803 -175.149
lowerback 14.2861 -3.29668 2.67259
upperback 3.6478 -4.40429 1.87833
thorax -4.17105 -2.41048 1.25715
lowerneck 0.148358 -3.60546 -5.39293
upperneck -4.75215 -4.54272 6.55979
head -1.24009 -2.23514 3.09039
rclavicle -3.18055e-015 7.7526e-015
rhumerus 135.03 155.665 141.43
rradius 31.8958
rwrist -73.2638
rhand -57.3634 -9.15662
rfingers 7.12502
rthumb -29.6384 -36.8088
lclavicle -3.18055e-015 7.7526e-015
lhumerus -413.784 -17.8088 408.595
lradius 20.9023
lwrist 47.4511
lhand -51.289 26.9023
lfingers 7.12502
lthumb -23.8258 55.4447
rfemur 2.975 8.50111 30.6538
rtibia 28.4549
rfoot -13.3685 -7.20973
rtoes 3.5692
lfemur 5.7577 2.31957 -14.5897
ltibia 24.6821
lfoot -12.976 -1.4138
ltoes -18.1141
78
root -1.60848 17.6271 -8.394 168.538 -4.9058 -175.018
lowerback 14.3833 -3.28675 2.8197
upperback 3.77357 -4.39014 1.89454
thorax -4.09938 -2.41294 1.19095
lowerneck -0.299129 -3.66819 -5.2939
upperneck -4.97844 -4.58059 6.53376
head -1.23356 -2.24057 3.05522
rclavicle -1.76794e-014 9.54166e-015
rhumerus 134.201 156.969 136.462
rradius 30.8461
rwrist -72.8519
rhand -56.2899 -9.96034
rfingers 7.12502
rthumb -28.6133 -37.7899
lclavicle -1.76794e-014 9.54166e-015
lhumerus -413.392 -16.1225 413.017
lradius 20.4356
lwrist 48.067
lhand -50.5934 26.6973
lfingers 7.12502
lthumb -23.1585 55.3252
rfemur 3.02422 8.35648 30.7079
rtibia 28.4355
rfoot -13.3096 -7.14077
rtoes 3.50004
lfemur 5.7822 2.31552 -14.4962
ltibia 24.7008
lfoot -12.9269 -1.45897
ltoes -18.1141
79
root -1.62155 17.6245 -8.36923 168.432 -4.90861 -174.935
lowerback 14.4433 -3.25532 2.931
upperback 3.90338 -4.35383 1.89367
thorax -4.00195 -2.40341 1.11991
lowerneck -0.720022 -3.73521 -5.23388
upperneck -5.20003 -4.62385 6.54675
head -1.22842 -2.24848 3.04119
rclavicle 4.38382e-014 -2.60408e-014
rhumerus 133.563 157.868 131.419
rradius 30.0015
rwrist -72.8115
rhand -55.1435 -10.7761
rfingers 7.12502
rthumb -27.5174 -38.7853
lclavicle 4.38382e-014 -2.60408e-014
lhumerus -412.633 -14.2018 416.996
lradius 19.9642
lwrist 48.0325
lhand -49.6353 26.9785
lfingers 7.12502
lthumb -22.2391 55.719
rfemur 3.03803 8.26727 30.7105
rtibia 28.4278
rfoot -13.2761 -7.05351
rtoes 3.46896
lfemur 5.79534 2.33104 -14.4558
ltibia 24.7135
lfoot -12.8601 -1.47891
ltoes -17.897
80
root -1.63531 17.6208 -8.34224 168.314 -4.85545 -174.815
lowerback 14.5093 -3.21813 3.08127
upperback 4.03515 -4.3059 1.91324
thorax -3.90632 -2.38924 1.04685
lowerneck -1.13671 -3.7858 -5.20786
upperneck -5.41403 -4.64549 6.55351
head -1.22255 -2.24459 3.0314
rclavicle -2.10215e-014 2.39536e-014
rhumerus 132.985 158.23 126.204
rradius 29.5282
rwrist -73.1266
rhand -53.9964 -11.5769
rfingers 7.12502
rthumb -26.4198 -39.7558
lclavicle -2.10215e-014 2.39536e-014
lhumerus -411.486 -12.088 420.663
lradius 19.2997
lwrist 47.2017
lhand -48.2685 27.6116
lfingers 7.12502
lthumb -20.9264 56.5028
rfemur 3.05794 8.17407 30.7547
rtibia 28.4205
rfoot -13.1915 -6.91653
rtoes 3.34153
lfemur 5.81324 2.37413 -14.3766
ltibia 24.7338
lfoot -12.8118 -1.45867
ltoes -18.0228
81
root -1.64977 17.6183 -8.31393 168.193 -4.77034 -174.718
lowerback 14.4965 -3.16518 3.22929
upperback 4.23118 -4.25072 1.91272
thorax -3.70131 -2.37315 0.944283
lowerneck -1.55181 -3.8481 -5.16799
upperneck -5.67376 -4.67609 6.58335
head -1.23097 -2.24398 3.02782
rclavicle 1.81143e-014 2.73329e-014
rhumerus 132.754 158.505 121.08
rradius 29.2473
rwrist -73.2326
rhand -52.8018 -12.3405
rfingers 7.12502
rthumb -25.2759 -40.6861
lclavicle 1.81143e-014 2.73329e-014
lhumerus -410.289 -11.1954 425.064
lradius 18.8368
lwrist 47.2844
lhand -46.7315 28.4587
lfingers 7.12502
lthumb -19.4491 57.506
rfemur 3.06887 8.02777 30.7545
rtibia 28.4228
rfoot -13.1252 -6.71343
rtoes 3.35986
lfemur 5.85333 2.40355 -14.3244
ltibia 24.738
lfoot -12.7542 -1.39108
ltoes -17.8695
82
root -1.66491 17.615 -8.2839 168.068 -4.65209 -174.616
lowerback 14.4157 -3.08774 3.38634
upperback 4.49721 -4.17773 1.92275
thorax -3.38497 -2.351 0.837011
lowerneck -2.09565 -3.91863 -5.14929
upperneck -5.89989 -4.70974 6.61128
head -1.20551 -2.24047 3.02321
rclavicle 5.20567e-015 -1.31198e-014
rhumerus 133.288 159.275 116.552
rradius 28.7044
rwrist -72.3405
rhand -51.451 -13.0109
rfingers 7.12502
rthumb -23.9812 -41.5331
lclavicle 5.20567e-015 -1.31198e-014
lhumerus -408.759 -11.1226 429.778
lradius 18.2005
lwrist 47.5809
lhand -44.9851 28.9357
lfingers 7.12502
lthumb -17.7693 58.1438
rfemur 3.0875 7.93408 30.779
rtibia 28.4214
rfoot -13.0196 -6.55113
rtoes 3.13354
lfemur 5.88982 2.46466 -14.2669
ltibia 24.748
lfoot -12.7086 -1.31984
ltoes -17.8635
83
root -1.67966 17.6118 -8.25337 167.902 -4.51688 -174.516
lowerback 14.3715 -3.01388 3.54347
upperback 4.7559 -4.10927 1.9194
thorax -3.0967 -2.3305 0.719789
lowerneck -2.64958 -3.98835 -5.09855
upperneck -6.05419 -4.74614 6.63489
head -1.1561 -2.23903 3.00944
rclavicle 3.97694e-014 -1.19271e-014
rhumerus 134.537 160.381 112.545
rradius 27.6708
rwrist -70.4391
rhand -49.918 -13.5807
rfingers 7.12502
rthumb -22.5104 -42.2886
lclavicle 3.97694e-014 -1.19271e-014
lhumerus -406.921 -11.3158 434.265
lradius 17.282
lwrist 47.2881
lhand -43.1811 28.7685
lfingers 7.12502
lthumb -16.0328 58.1251
rfemur 3.14653 7.87575 30.8158
rtibia 28.4262
rfoot -12.9611 -6.39872
rtoes 2.97539
lfemur 5.98756 2.45584 -14.2227
ltibia 24.7471
lfoot -12.6627 -1.19043
ltoes -17.5722
84
root -1.69474 17.608 -8.22328 167.722 -4.33434 -174.424
lowerback 14.344 -2.92014 3.6983
upperback 4.99629 -4.01305 1.92324
thorax -2.83511 -2.29547 0.608946
lowerneck -3.27993 -4.0544 -5.05106
upperneck -6.11918 -4.77986 6.64012
head -1.06563 -2.23483 2.98639
rclavicle 1.87479e-014 -1.68967e-015
rhumerus 135.911 160.587 108.288
rradius 26.774
rwrist -68.948
rhand -48.768 -14.176
rfingers 7.12502
rthumb -21.4062 -43.0135
lclavicle 1.87479e-014 -1.68967e-015
lhumerus -405.455 -12.6063 439.209
lradius 17.1406
lwrist 47.4826
lhand -41.8052 28.4456
lfingers 7.12502
lthumb -14.7075 57.9039
rfemur 3.22454 7.80885 30.8492
rtibia 28.4387
rfoot -12.8629 -6.21219
rtoes 2.675
lfemur 6.10783 2.53292 -14.1673
ltibia 24.7448
lfoot -12.6134 -1.07455
ltoes -17.5445
85
root -1.70953 17.6029 -8.19334 167.486 -4.131 -174.345
lowerback 14.4131 -2.82423 3.81749
upperback 5.19322 -3.90963 1.93546
thorax -2.66758 -2.25644 0.533917
lowerneck -3.91502 -4.12797 -5.02709
upperneck -6.04955 -4.83663 6.6242
head -0.930367 -2.2441 2.95786
rclavicle 3.34455e-014 -2.78299e-014
rhumerus 137.11 159.34 103.569
rradius 26.3562
rwrist -68.5625
rhand -48.1683 -14.9262
rfingers 7.12502
rthumb -20.8301 -43.828
lclavicle 3.34455e-014 -2.78299e-014
lhumerus -404.007 -14.8559 444.418
lradius 16.9802
lwrist 48.1036
lhand -40.9762 27.6591
lfingers 7.12502
lthumb -13.9086 57.1739
rfemur 3.35914 7.71617 30.879
rtibia 28.4578
rfoot -12.7658 -6.01181
rtoes 2.41468
lfemur 6.30267 2.58719 -14.1214
ltibia 24.7393
lfoot -12.579 -0.949191
ltoes -17.1999
86
root -1.72376 17.5979 -8.16465 167.255 -3.9268 -174.299
lowerback 14.4438 -2.7255 3.90623
upperback 5.39695 -3.80965 1.94313
thorax -2.47056 -2.2187 0.469103
lowerneck -4.58879 -4.18941 -5.01482
upperneck -5.93135 -4.8778 6.61016
head -0.774235 -2.24481 2.9311
rclavicle 2.8625e-014 -1.87852e-014
rhumerus 138.659 157.746 99.1575
rradius 25.9471
rwrist -68.1736
rhand -47.771 -15.6414
rfingers 7.12502
rthumb -20.4484 -44.5847
lclavicle 2.8625e-014 -1.87852e-014
lhumerus -402.678 -18.4096 449.999
lradius 16.9444
lwrist 49.5192
lhand -40.7999 26.8032
lfingers 7.12502
lthumb -13.7388 56.3296
rfemur 3.49086 7.54584 30.8576
rtibia 28.4869
rfoot -12.6978 -5.7455
rtoes 1.95572
lfemur 6.49883 2.69558 -14.0968
ltibia 24.7348
lfoot -12.5578 -0.866118
ltoes -17.0294
87
root -1.73692 17.5918 -8.13526 167.009 -3.67003 -174.229
lowerback 14.4962 -2.61056 3.98429
upperback 5.58834 -3.68903 1.98494
thorax -2.29423 -2.1719 0.444483
lowerneck -5.29002 -4.24966 -5.04699
upperneck -5.70572 -4.92493 6.58063
head -0.578752 -2.24931 2.90564
rclavicle 1.2424e-015 1.59028e-014
rhumerus 139.863 154.715 94.5077
rradius 26.315
rwrist -68.9613
rhand -47.904 -16.603
rfingers 7.12502
rthumb -20.5762 -45.5325
lclavicle 1.2424e-015 1.59028e-014
lhumerus -401.662 -23.0785 455.765
lradius 17.2352
lwrist 51.5886
lhand -41.2933 26.1048
lfingers 7.12502
lthumb -14.2143 55.5985
rfemur 3.62938 7.4067 30.8838
rtibia 28.52
rfoot -12.6102 -5.4872
rtoes 1.21852
lfemur 6.71917 2.80437 -14.0328
ltibia 24.7312
lfoot -12.5325 -0.750827
ltoes -16.701
88
root -1.74936 17.5863 -8.10339 166.748 -3.4399 -174.183
lowerback 14.5898 -2.50689 4.04146
upperback 5.78118 -3.58555 2.00273
thorax -2.13897 -2.13391 0.411871
lowerneck -5.94281 -4.30484 -5.02253
upperneck -5.50346 -4.96784 6.55268
head -0.401284 -2.25344 2.87284
rclavicle -5.0454e-014 2.04748e-014
rhumerus 140.607 150.247 89.6341
rradius 27.4977
rwrist -70.9922
rhand -48.5227 -17.6593
rfingers 7.12502
rthumb -21.1706 -46.5234
lclavicle -5.0454e-014 2.04748e-014
lhumerus -401.036 -28.7555 461.462
lradius 17.94
lwrist 54.1711
lhand -42.2632 25.8692
lfingers 7.12502
lthumb -15.1487 55.2948
rfemur 3.78316 7.30125 30.8975
rtibia 28.5567
rfoot -12.5071 -5.31038
rtoes 0.589547
lfemur 6.94123 2.93251 -13.9921
ltibia 24.727
lfoot -12.4885 -0.650219
ltoes -16.7087
